<svg version="1.2" xmlns="http://www.w3.org/2000/svg" viewBox="0 0 714 204" width="1000" height="286">
	<defs>
		<linearGradient id="g1" x2="1" gradientUnits="userSpaceOnUse" gradientTransform="matrix(720,0,0,200.647,-4,-438)">
			<stop offset="0" stop-color="#2563eb"/>
			<stop offset=".5" stop-color="#6d28d9"/>
			<stop offset="1" stop-color="#9333ea"/>
		</linearGradient>
	</defs>
	<style>
		.s0 { fill: url(#g1) } 
	</style>
	<path id="SIALFLIX" fill-rule="evenodd" class="s0" d="m18.17 19.44c7.37-8.56 18.38-13.51 32.93-14.34 14.55-0.78 25.56 2.86 32.93 10.36 7.37 7.46 11.1 18.76 11.08 33.4l-0.01 5.76-28.28 1.97 0.01-7.66c0.01-13.22-5.42-17.9-14.94-17.27-9.51 0.64-14.95 6.1-14.96 19.49-0.01 9.63 3.64 17 9.11 23.45 5.47 6.43 12.77 11.93 20.07 17.88 7.29 5.92 14.59 12.28 20.06 20.43 5.47 8.12 9.11 18.04 9.1 31.11-0.02 14.64-3.84 26.56-11.32 35.28-7.48 8.78-18.62 14.41-33.28 16.36-14.64 2.04-25.75-0.65-33.2-7.65-7.45-7.03-11.24-18.43-11.24-33.63v-11.67l28.2-3.47v13.4c-0.01 13.4 5.95 17.45 15.45 16.24 9.5-1.17 15.48-6.65 15.49-19.87 0.01-9.52-3.63-16.73-9.1-23.02-5.47-6.32-12.76-11.72-20.05-17.62-7.29-5.92-14.59-12.34-20.05-20.67-5.47-8.37-9.12-18.65-9.11-32.22 0-15.2 3.73-27.41 11.11-36.04zm94.56-13.42l29.94 0.13c0 0-0.01 7.97-0.03 24.86-0.02 8.44-0.03 18.29-0.04 28.85-0.02 10.55-0.03 21.81-0.05 33.07-0.01 11.26-0.03 22.52-0.04 33.07-0.02 10.56-0.03 20.41-0.04 28.85-0.03 16.89-0.04 28.15-0.04 28.15l-29.94 3.02zm147.85 168.95l-30.3 1.47-5.14-31.73-36.82 2.17-5.22 32.66-27.52 2.26c0 0 1.92-11.37 4.8-28.41 1.44-8.51 3.13-18.43 4.93-29.04 1.8-10.61 3.72-21.9 5.65-33.19 1.92-11.27 3.84-22.53 5.64-33.07 1.81-10.54 3.49-20.36 4.93-28.77 2.88-16.81 4.8-22.98 4.8-22.98 0 0 10.97 0.11 21.94-0.2 10.97-0.28 21.94 0.04 21.94 0.04zm-68.41-52.47l28.9-1.55c0 0-0.9-5.54-2.24-13.85-1.35-8.32-3.14-19.41-4.93-30.51-1.79-11.11-3.59-22.23-4.93-30.57-1.34-8.35-2.24-13.92-2.24-13.92zm82.63-116.25l29.99-0.36c0 0 0 2.38-0.01 16.41 0 7.02-0.01 15.2-0.01 23.98-0.01 8.77-0.01 18.12-0.02 27.48 0 9.35-0.01 18.71-0.01 27.48 0 8.77-0.01 16.96-0.01 23.97-0.01 14.04-0.01 23.39-0.01 23.39 0 0 12.35-0.22 24.71-0.38 12.36-0.1 24.72-0.14 24.72-0.14v24.9c0 0-19.88 0.1-39.75 0.37-19.87 0.45-39.74 1.07-39.74 1.07zm123.15 70.13l38.74 0.71 0.02 25.02-38.75-0.8c0 0 0 18.02 0.01 36.03 0.01 18.02 0.02 36.03 0.02 36.03l-30.05-0.36c0 0 0-10.89 0-27.24-0.01-8.17-0.01-17.7-0.01-27.92 0-10.21 0-21.11 0-32 0-10.9 0-21.79-0.01-32.01 0-10.21 0-12.4 0-20.57 0-16.34 0-27.24 0-27.24 0 0 19.84 0.01 39.67 0.16 19.84 0.23 39.67 0.01 39.67 0.01l0.03 25.06c0 0-12.34-0.24-24.68-0.43-12.35-0.17-24.69 0.29-24.69 0.29zm63.08-70.3l29.99 0.08c0 0 0.01 3.66 0.02 17.86 0.01 7.09 0.02 15.37 0.03 24.25 0.01 8.87 0.02 18.33 0.04 27.8 0.01 9.46 0.02 18.93 0.03 27.8 0.01 8.87 0.02 17.15 0.03 24.25 0.01 14.2 0.02 23.66 0.02 23.66 0 0 12.35 0.71 24.69 1.48 12.33 0.83 24.66 1.72 24.66 1.72l0.04 25.53c0 0-19.83-1.54-39.67-2.89-19.85-1.19-39.7-2.2-39.7-2.2zm93.05 0.04l29.95 0.15c0 0 0.02 8.52 0.04 25.49 0.01 8.49 0.03 18.39 0.04 29 0.01 10.6 0.03 21.92 0.04 33.23 0.02 11.31 0.03 22.63 0.05 33.24 0.01 10.6 0.03 20.5 0.04 28.99 0.02 16.97 0.04 28.28 0.04 28.28l-29.95-2.82zm151.99 0.06c0 0-3.16 9.38-6.08 17.82-2.93 8.41-6.83 19.6-10.73 30.75-3.9 11.12-7.8 22.19-10.72 30.48-2.92 8.26-4.87 13.76-4.87 13.76 0 0 2.09 6.23 5.22 15.61 3.14 9.4 7.32 21.98 11.49 34.62 4.17 12.69 8.34 25.43 11.47 35.02 3.12 9.62 5.2 16.06 5.2 16.06l-31.42-4.69c0 0-6.12-19.36-12.24-38.61-6.12-19.13-12.25-38.16-12.25-38.16 0 0-6.16 17.7-12.32 35.31-6.16 17.55-12.32 35.02-12.32 35.02l-28.01-3.19c0 0 2.09-5.62 5.21-14.07 3.13-8.47 7.29-19.78 11.46-31.12 4.17-11.37 8.33-22.77 11.46-31.34 3.12-8.58 5.21-14.32 5.21-14.32 0 0-1.96-5.75-4.9-14.36-2.95-8.59-6.87-20.01-10.79-31.4-3.93-11.34-7.85-22.66-10.8-31.12-2.94-8.44-4.9-12.22-4.9-12.22l31.02 0.09c0 0 5.66 16.85 11.32 34.23 5.66 17.46 11.31 35 11.31 35 0 0 5.76-16.67 11.53-33.42 5.76-16.82 11.53-36 11.53-36z"/>
</svg>